<?xml version="1.0" encoding="UTF-8"?>
<svg xmlns="http://www.w3.org/2000/svg" version="1.1" viewBox="0 0 97.8 90.2">
  <defs>
    <style>
      .cls-1 {
        display: none;
        fill: #ff1414;
      }

      .cls-2 {
        fill: #f17834;
      }
    </style>
  </defs>
  <!-- Generator: Adobe Illustrator 28.6.0, SVG Export Plug-In . SVG Version: 1.2.0 Build 709)  -->
  <g>
    <g id="Position_1">
      <path id="Path_47" class="cls-1" d="M80.6,31.6c.3.3.6.5,1,.5h6.1c.4,0,.8-.2,1-.5l2.6-3.1c.2-.2.3-.5.3-.9v-8h4.8c.7,0,1.3-.6,1.3-1.3v-4.6c0-.7-.6-1.3-1.3-1.3h-4.8V4.4c0-.3-.1-.6-.3-.9l-2.6-3.1c-.3-.3-.6-.5-1-.5h-6.1c-.4,0-.8.2-1,.5l-2.6,3.1c-.2.2-.3.5-.3.9v8H20V4.4c0-.3-.1-.6-.3-.9l-2.6-3.1c-.3-.3-.6-.5-1-.5h-6.1c-.4,0-.8.2-1,.5l-2.6,3.1c-.2.2-.3.5-.3.9v8H1.3c-.7,0-1.3.6-1.3,1.3v4.6c0,.7.6,1.3,1.3,1.3h4.8v8c0,.3.1.6.3.9l2.6,3.1c.3.3.6.5,1,.5h6.1c.4,0,.8-.2,1-.5l.2-.2v48.7H4.4c-2.4,0-4.4,2-4.4,4.4v4.3c0,.7.6,1.3,1.3,1.3h95.1c.7,0,1.3-.6,1.3-1.3v-4.3c0-2.4-2-4.4-4.4-4.4h-13V31.4l.2.2ZM95.1,15.1v1.9h-3.4v-1.9h3.4ZM80.4,4.9l1.9-2.2h4.9l1.9,2.2v22.3l-1.9,2.2h-4.9l-1.9-2.2V4.9ZM77.8,15.1v1.9H20v-1.9h57.7ZM56.5,80.1v-8.4h9.3c.7,0,1.3-.6,1.3-1.3v-3.8c0-3.1-2.4-5.6-5.4-5.9v-21.4c0-4-3.2-7.2-7.2-7.2h-11.2c-4,0-7.2,3.2-7.2,7.2v21.4c-3.1.3-5.4,2.8-5.4,5.9v3.8c0,.7.6,1.3,1.3,1.3,0,0,0,0,0,0h9.3v8.4h-15.5V19.7h46.2v60.4h-15.5ZM59.1,60.6h-20.3v-21.4c0-2.5,2-4.6,4.6-4.6h11.2c2.5,0,4.6,2,4.6,4.6v21.4ZM36.6,63.3h24.6c1.8,0,3.3,1.5,3.3,3.3v2.5h-31.1v-2.5c0-1.8,1.5-3.3,3.3-3.3h0ZM44,71.7h9.9v8.4h-9.9v-8.4ZM2.7,17v-1.9h3.4v1.9h-3.4ZM15.5,29.4h-4.9l-1.9-2.2V4.9l1.9-2.2h4.9l1.9,2.2v22.3l-1.9,2.2ZM20,19.7h3.1v60.4h-3.1V19.7ZM95.1,84.5v3H2.7v-3c0-.9.8-1.7,1.7-1.7h89c.9,0,1.7.8,1.7,1.7h0ZM74.7,80.1V19.7h3.1v60.4h-3.1Z"/>
      <path id="Path_48" class="cls-1" d="M45.5,41.6h6.8c.7,0,1.3-.6,1.3-1.3,0-.7-.6-1.3-1.3-1.3h-6.8c-.7,0-1.3.6-1.3,1.3,0,.7.6,1.3,1.3,1.3Z"/>
      <path id="Path_49" class="cls-1" d="M53.8,45.3h-9.8c-.7,0-1.3.6-1.3,1.3s.6,1.3,1.3,1.3h9.8c.7,0,1.3-.6,1.3-1.3s-.6-1.3-1.3-1.3h0Z"/>
      <path id="Path_50" class="cls-1" d="M52.3,51.6h-6.8c-.7,0-1.3.6-1.3,1.3s.6,1.3,1.3,1.3h6.8c.7,0,1.3-.6,1.3-1.3s-.6-1.3-1.3-1.3Z"/>
      <g>
        <path class="cls-2" d="M4.7,47c0-1.3,0-2.5,0-3.8,0-.6.1-1.1.1-1.7.1-2.2.5-4.4,1-6.6,1.2-5,3.2-9.8,6-14.1,2.7-4.2,6-7.8,9.8-10.9,3.2-2.5,6.6-4.6,10.4-6.2C37.2,1.4,42.6.2,48.2,0c3.3-.1,6.5.1,9.8.7,4.2.8,8.2,2.1,12,4,3.8,1.9,7.3,4.3,10.4,7.2,3.1,2.9,5.8,6.2,8,9.9,2.3,3.7,3.9,7.7,5,11.9.7,2.5,1.1,5.1,1.3,7.7,0,.6,0,1.2.1,1.7v3.8c0,0,0,.2,0,.2,0,2.3-.4,4.5-.8,6.7-.9,4.6-2.5,9-4.9,13.2-2.9,5.1-6.6,9.5-11.2,13.2-4.6,3.7-9.8,6.4-15.5,8.1-3,.9-6,1.4-9.1,1.7-.6,0-1.1,0-1.7.1h-3.8c0,0-.2,0-.2,0-2.1,0-4.2-.3-6.2-.7-3.6-.7-7.1-1.8-10.4-3.3-6.8-3.1-12.4-7.7-17-13.6-3.6-4.7-6.2-9.9-7.8-15.7-.7-2.7-1.2-5.4-1.4-8.1,0-.6,0-1.2-.1-1.7ZM23.6,77.9c.1-1.4.3-2.8.4-4.2,0-1.6.6-2.9,1.6-4.1.8-1.1,1.9-1.8,3.1-2.5,2.3-1.3,4.5-2.6,6.8-4,1.1-.7,2.5-.4,3.3.6,1.7,2.2,3.4,4.4,5.2,6.6.7.9,1.4,1.7,2.1,2.6.5-1.5.8-3,1.3-4.4.4-1,.2-1.7-.3-2.6-.7-1-1.2-2.1-1.8-3.1-.4-.7,0-1.6.9-1.6,2.5,0,4.9,0,7.4,0,.4,0,.7.2.9.6.2.4.1.7,0,1-.7,1.2-1.4,2.4-2.1,3.6-.2.4-.3.7,0,1.2.5,1.2,1,2.4,1.5,3.6,0,.2.2.5.3.7,0,0,.1-.1.1-.2,2-2.8,4-5.6,6.1-8.3.9-1.2,2.3-1.5,3.5-.7,2.7,1.6,5.3,3.1,8,4.7,1.9,1.1,3.3,2.7,3.7,4.9.2,1.2.3,2.4.4,3.6,0,.6.1,1.2.2,1.8,13.2-10.2,19.9-28.5,13.9-46.5C84,14.9,67.6,1.8,47.2,2.9,30,3.8,14.1,15.5,9,33.6c-4.9,17.5,2,34.8,14.5,44.4Z"/>
        <path class="cls-2" d="M60.3,42.2c1.4.8,1.6,2.2,1.3,3.7-.3,1.3-1.1,2.3-2,3.2-.3.3-.6.7-.8,1.1-1,2-2.2,3.8-3.8,5.3-1.5,1.3-3.2,2.2-5.3,2.2-2.1,0-3.8-.9-5.3-2.3-1.6-1.5-2.8-3.3-3.8-5.3-.2-.4-.4-.7-.7-1-1.1-1-1.9-2.1-2.1-3.6-.1-1.1,0-2.1.8-2.9.2-.1.3-.3.5-.3-.4-1.2-.9-2.4-1.3-3.7-.6-2.4,0-4.6,1.2-6.6,1.8-2.8,4.5-4.4,7.7-5.1,1.7-.4,3.5-.4,5.3-.4,1.8,0,3.7,0,5.5-.6.4-.1.8-.3,1.3-.5.2.5.5,1,.8,1.5,1.1,2.4,1.9,4.8,2.5,7.4.5,2,.1,3.9-.7,5.8-.3.7-.6,1.4-.9,2Z"/>
      </g>
    </g>
  </g>
</svg>