<?xml version="1.0" encoding="UTF-8"?>
<svg xmlns="http://www.w3.org/2000/svg" version="1.1" viewBox="0 0 90.2 90.2">
  <defs>
    <style>
      .cls-1 {
        display: none;
        fill: #ff1414;
      }

      .cls-2 {
        fill: #f17834;
      }
    </style>
  </defs>
  <!-- Generator: Adobe Illustrator 28.6.0, SVG Export Plug-In . SVG Version: 1.2.0 Build 709)  -->
  <g>
    <g id="position_2">
      <path id="Path_51" class="cls-1" d="M34.8,69.9l.2,2.9c.4,0,.9,0,1.3,0h1.5v-2.9h-1.5c-.5,0-1.1,0-1.6,0Z"/>
      <path id="Path_52" class="cls-1" d="M19.2,80.8l2.6,1.2c2-4.4,5.9-7.6,10.5-8.8l-.7-2.8c-5.5,1.4-10.1,5.2-12.5,10.4Z"/>
      <path id="Path_53" class="cls-1" d="M71.3,64.7v-6.5h8.7v-1.5c0-4-3.3-7.3-7.3-7.3h-1.2c.3-.3.6-.6.8-1,1.5-2.1,2.1-4.7,1.6-7.3l-2.4-13c-.9-4.6-4.1-8.4-8.6-9.9,4.4-3.5,5.2-9.9,1.7-14.3-3.5-4.4-9.9-5.2-14.3-1.7-4.4,3.5-5.2,9.9-1.7,14.3.3.4.6.7.9,1h-11.8v-1.5c0-2.4-1.9-4.4-4.3-4.4-2.4,0-4.4,1.9-4.4,4.3,0,0,0,0,0,.1v1.5h-.7c-2.8,0-5.1,2.3-5,5.2,0,2.8,2.3,5,5,5h.7v10.2h-11.6l-6.2-23.3h-3.5C3.5,14.5,0,18,0,22.3c0,.8.1,1.5.3,2.3l5.5,18,8.6,34.6c-1.9,3.6-2.9,7.5-2.9,11.6v1.5h78.5v-1.5c0-11.4-7.8-21.3-18.9-24h0ZM68.3,64.2c-1-.1-1.9-.2-2.9-.2v-5.8h2.9v6ZM55.8,58.2h6.7v5.8h-8l1.2-5.8ZM72.7,52.3c1.8,0,3.5,1.2,4.1,2.9h-20.4l.6-2.9h15.7,0ZM49.4,10.2c0-4,3.3-7.3,7.3-7.3s7.3,3.3,7.3,7.3-3.3,7.3-7.3,7.3c-4,0-7.3-3.3-7.3-7.3ZM32,16c0-.8.7-1.5,1.5-1.5s1.5.7,1.5,1.5v1.5h-2.9v-1.5ZM26.2,22.5c0-1.2,1-2.2,2.2-2.2h30.3c4.9,0,9.1,3.5,10,8.3l2.4,13c.3,1.8,0,3.6-1.1,5.1-1.3,1.7-3.4,2.7-5.6,2.7h-7.4c-1.4,0-2.6,1-2.8,2.3l-3.4,15.8c-.3,1.3-1.5,2.3-2.8,2.3-.2,0-.4,0-.6,0-1.6-.3-2.6-1.9-2.2-3.5,0,0,0,0,0,0l3.4-15.8c.9-4,4.4-6.9,8.5-6.9h1.8s-3.1-15.4-3.1-15.4c-.4-2-2.2-3.5-4.3-3.5h-23.1c-1.2,0-2.2-1-2.2-2.2,0,0,0,0,0,0h0ZM42.7,64h-6.3c-4.4,0-8.7,1.2-12.5,3.5l-5.2-20.9h12c4,0,7.3-3.3,7.3-7.3v-11.6h13.6c.7,0,1.3.5,1.4,1.2l2.4,12.1c-4.7.8-8.5,4.4-9.6,9.1l-3,14.1ZM29.1,40.7c1.6,0,2.9-1.3,2.9-2.9v-10.2h2.9v11.6c0,2.4-2,4.4-4.4,4.4H14.5v-2.9h14.5ZM2.9,22.3c0-2.7,2.2-4.9,4.9-4.9h1.3l5.4,20.4h-2.9v2.9h-3.3L3.1,23.7c-.1-.5-.2-.9-.2-1.4h0ZM9.1,43.6h2.5v2.9h4l5.7,22.6c-1.7,1.3-3.3,2.9-4.6,4.6l-7.5-30.2ZM14.6,87.3c.8-11.5,10.3-20.3,21.8-20.4h5.8c0,2.7,1.9,5.1,4.6,5.7,3.1.7,6.2-1.3,6.9-4.5l.3-1.2h11.5c11.5,0,21,8.9,21.8,20.4H14.6Z"/>
      <path id="Path_54" class="cls-1" d="M56.7,75.6h-11.6c-2.4,0-4.3,2-4.3,4.4,0,2.4,1.9,4.3,4.3,4.3h11.6c2.4,0,4.3-2,4.3-4.4,0-2.4-1.9-4.3-4.3-4.3ZM56.7,81.4h-11.6c-.8,0-1.5-.7-1.5-1.5s.7-1.5,1.5-1.5h11.6c.8,0,1.5.7,1.5,1.5s-.7,1.5-1.5,1.5Z"/>
      <path id="Path_55" class="cls-1" d="M72.7,72.7c-3.2,0-5.8,2.6-5.8,5.8s2.6,5.8,5.8,5.8,5.8-2.6,5.8-5.8c0-3.2-2.6-5.8-5.8-5.8ZM72.7,81.4c-1.6,0-2.9-1.3-2.9-2.9,0-1.6,1.3-2.9,2.9-2.9,1.6,0,2.9,1.3,2.9,2.9,0,1.6-1.3,2.9-2.9,2.9Z"/>
      <g>
        <path class="cls-2" d="M20.8,7c0-1.4,0-2.6,0-3.7-.1-2.3.8-3.4,3.2-3.3,6.8,0,13.6,0,20.4,0,2.3,0,3.2,1,3.1,3.2,0,1.2,0,2.3,0,3.8,4.6,0,9,0,13.5,0,3.1,0,3.3.2,3.3,3.2,0,6.8,0,13.6,0,20.7-8.7-1.3-15.4,1.4-19.3,9.1-3.8,7.6-2.2,14.7,3.5,21-6.5,5.3-14.3,2.6-21.8,3.5v3.5h9.7c-2.4,3.3-5.7,1.2-8.4,2.4v17.3c-1.7,0-3.1,0-4.5,0-5.2,0-10.4,0-15.6,0-3.4,0-3.9-.5-3.9-4,0,0,0-.2,0-.3,0-24.2,0-48.4,0-72.6,0-3.7,0-3.8,3.8-3.8,4.2,0,8.4,0,13,0ZM11.4,19.7v9.8c1.5,0,2.7-.1,4-.2v-9.6h-4ZM21,19.7h-4.1v9.5h4.1v-9.5ZM15.2,71.5c.1-.2.3-.4.3-.5,0-1.9,0-3.8,0-5.7q0-3.9-4.2-3.2v9.5h3.8ZM16.9,71.5h4.2c0-2.9,0-5.7,0-8.5,0-.4-.8-1.1-1.4-1.2-.8-.2-1.8,0-2.8,0v9.7ZM48.4,29.1h4.1v-9.4h-4.1v9.4ZM15.5,40h-4.1v9.5h4.1v-9.5ZM16.9,40.1v9.4h4.1v-9.4h-4.1ZM33.9,19.7h-4v9.5h4v-9.5ZM39.4,29.3v-9.6h-3.8v9.6h3.8ZM54.1,19.6v9.4h4v-9.4h-4ZM29.9,40.1v9.5h3.9v-9.5h-3.9ZM35.5,49.5h3.9v-9.4h-3.9v9.4Z"/>
        <path class="cls-2" d="M48.4,65.2c2.9,4.8,5.6,9.5,8.4,14.1.8-4.7,2.4-9.4-.8-14.1h8.2c-3.2,4.5-1.6,9.3-.9,14.2,2.8-4.7,5.6-9.3,8.5-14.2,6.7,2.9,12.6,6.4,14.8,13.9.8,3,.3,4.2-2.4,5.8-5.6,3.2-11.7,4.5-18,5-9.4.7-18.6.2-27.4-3.6-6.2-2.7-7-5.2-3.6-11.1,2.9-5,7.7-7.8,13.2-10ZM72.7,82.8c1,0,2,0,3,0,.4,0,.7-.7,1-1-.4-.3-.7-.9-1.1-1-1.9,0-3.8,0-5.7,0-.4,0-.7.7-1,1,.4.3.7.9,1.1,1,.9.1,1.8,0,2.7,0Z"/>
        <path class="cls-2" d="M73.6,48c0,7.7-6.2,14-13.5,13.9-7.4,0-13.5-6.5-13.3-14.1.1-7.8,6.1-13.9,13.5-13.9,7.4,0,13.4,6.4,13.3,14.1Z"/>
      </g>
    </g>
  </g>
</svg>