<?xml version="1.0" encoding="UTF-8"?>
<svg xmlns="http://www.w3.org/2000/svg" version="1.1" viewBox="0 0 90.2 90.2">
  <defs>
    <style>
      .cls-1 {
        fill: #f17834;
      }
    </style>
  </defs>
  <!-- Generator: Adobe Illustrator 28.6.0, SVG Export Plug-In . SVG Version: 1.2.0 Build 709)  -->
  <g>
    <g id="position_1">
      <g>
        <path class="cls-1" d="M0,42.2c.2-1.6.4-3.3.7-4.9C3.1,24.3,9.9,14.1,21,7,28.6,2.1,37-.2,46.1,0c4.2,0,8.3.8,12.3,2,1.2.4,1.8,1.3,1.7,2.4-.1,1-.9,1.8-2,1.9-.4,0-.9,0-1.3-.2-13.1-3.7-25.3-1.6-36.2,6.5-8.5,6.3-13.7,14.9-15.5,25.4-2.1,12.3.9,23.3,8.8,32.9,6.3,7.6,14.5,12.3,24.2,13.9,13.1,2.1,24.7-1.2,34.4-10.2,10.2-9.4,14.3-21.3,12.7-35.1-.3-2.2-.9-4.3-1.4-6.4-.4-1.5.2-2.8,1.4-3.1,1.3-.4,2.4.4,2.9,1.9,1,3.2,1.6,6.5,1.8,9.8,0,.3,0,.5.1.8v4.9c0,.3-.1.5-.1.8-.3,2.1-.5,4.2-.9,6.2-3.6,17.7-18.4,31.9-36.3,34.8-1.6.3-3.3.5-4.9.7h-5.6c-.2,0-.4-.1-.6-.1-2.1-.3-4.2-.5-6.3-.9C17.8,85.2,3.7,70.5.7,52.7.4,51.1.2,49.5,0,47.8c0-1.9,0-3.7,0-5.6Z"/>
        <path class="cls-1" d="M46,76.2c-16.1,0-29.3-11.1-31.8-26.2-2.8-16.7,8.1-32.7,24.6-36,2.6-.5,5.3-.8,8-.5.7,0,1.4.4,2,.8.7.6.9,1.7.5,2.5-.4.8-1.2,1.3-2.3,1.2-4.5-.4-8.9.3-12.9,2.3-10.3,5-15.8,13.3-15.8,24.8,0,13.3,10,24.5,23.2,26.3,14.9,2.1,28.7-8.5,30.5-23.4.2-1.6.2-3.2,0-4.7,0-1.6.7-2.7,2.1-2.8,1.3-.1,2.3.9,2.4,2.4.3,4-.1,7.9-1.5,11.7-4.3,11.9-12.7,19-25.1,21.2-1.5.3-3.1.3-3.9.4Z"/>
        <path class="cls-1" d="M66.1,31.4c-1.1,0-2.3,0-3.4,0-.5,0-1,.2-1.4.6-4.7,4.6-9.4,9.3-14,14-.2.2-.5.5-.8.7-.9.7-2.2.6-3-.3-.8-.8-.8-2-.1-2.9.2-.3.5-.5.7-.8,4.6-4.6,9.2-9.2,13.8-13.8.5-.5.7-1,.7-1.7,0-2.2,0-4.4,0-6.6,0-1,.3-1.7,1-2.4,4.3-4.2,8.6-8.5,12.8-12.8.8-.8,1.7-1.2,2.8-.8,1.1.4,1.4,1.4,1.4,2.5,0,1.8,0,3.5,0,5.3,0,.8.2,1.1,1,1,1.8,0,3.6,0,5.5,0,1.1,0,1.9.3,2.3,1.4.4,1,0,1.9-.7,2.7-4.3,4.3-8.7,8.6-13,13-.6.6-1.3.9-2.2.9-1.1,0-2.3,0-3.4,0ZM72.2,12.2c-.3.3-.6.5-.8.7-2.2,2.2-4.3,4.4-6.6,6.5-1.3,1.2-1.9,2.4-1.7,4.1.1,1.1,0,2.3,0,3.4,1.8,0,3.4,0,5,0,.5,0,1-.2,1.4-.5,2.6-2.5,5.1-5.1,7.7-7.6.2-.2.4-.4.7-.8-1.2,0-2.3,0-3.3,0-1.5,0-2.4-.9-2.4-2.4,0-1,0-2.1,0-3.3Z"/>
        <path class="cls-1" d="M27.2,44.8c0-9.6,7.6-17.5,17.2-17.9.3,0,.6,0,1,0,1.2,0,2.1,1,2.1,2.2,0,1.1-.8,2.1-1.9,2.3-1.2.2-2.4.2-3.6.5-6.2,1.5-10.7,7.5-10.2,13.7.5,6.9,5.5,12.1,12.2,12.7,7.7.7,14.4-5.1,14.7-12.8,0-.2,0-.4,0-.5.1-1.4,1.1-2.3,2.3-2.3,1.3,0,2.2,1.1,2.2,2.5,0,4.2-1.4,8-4.2,11.2-4.9,5.7-11.2,7.8-18.5,5.8-7.2-1.9-11.5-6.9-13-14.2-.2-1-.2-2-.3-3.1Z"/>
      </g>
    </g>
  </g>
</svg>